# xmcd CD database file
#
# Track frame offsets:
#	150
#	13397
#	24701
#	40668
#	54320
#	78623
#	88273
#	107270
#	122130
#	131752
#	147945
#	164690
#
# Disc length: 2373 seconds
#
# Revision: 0
# Processed by: cddbd v1.5.2PL0 Copyright (c) Steve Scherf et al.
# Submitted via: CDex 1.51
#
DISCID=a409430c
DTITLE=Eleni Mandell - Dark Lights Up
DYEAR=2015
DGENRE=Country
TTITLE0=I'm Old Fashioned
TTITLE1=What Love Can Do
TTITLE2=Someone To Love Like You
TTITLE3=Cold Snap
TTITLE4=China Garden Buffet
TTITLE5=Town Called Heartache
TTITLE6=Old Lady
TTITLE7=Magic Pair Of Shoes
TTITLE8=If You Wanna Get Kissed
TTITLE9=Baby, Don't Call
TTITLE10=Butter Blonde And Chocolate Brown
TTITLE11=Do It Again
EXTD=YEAR: 2015
EXTT0=
EXTT1=
EXTT2=
EXTT3=
EXTT4=
EXTT5=
EXTT6=
EXTT7=
EXTT8=
EXTT9=
EXTT10=
EXTT11=
PLAYORDER=
